<?xml version="1.0" standalone="no"?>
<!DOCTYPE svg PUBLIC "-//W3C//DTD SVG 20010904//EN"
 "http://www.w3.org/TR/2001/REC-SVG-20010904/DTD/svg10.dtd">
<svg version="1.0" xmlns="http://www.w3.org/2000/svg"
 width="270.000000pt" height="270.000000pt" viewBox="0 0 270.000000 270.000000"
 preserveAspectRatio="xMidYMid meet">
<metadata>
Created by potrace 1.14, written by Peter Selinger 2001-2017
</metadata>
<g transform="translate(0.000000,270.000000) scale(0.100000,-0.100000)"
fill="#000000" stroke="none">
<path d="M1219 2412 c-127 -131 -232 -261 -334 -412 -72 -108 -162 -270 -148
-270 3 0 1 -6 -5 -13 -20 -24 -31 -148 -18 -219 2 -15 19 -57 36 -94 26 -52
59 -92 159 -192 70 -70 141 -147 157 -172 27 -39 56 -99 60 -122 1 -5 3 -9 4
-10 3 -4 9 -52 13 -105 6 -66 -4 -69 -61 -18 -70 63 -112 140 -117 218 -2 15
-4 30 -5 35 -1 4 -2 11 -1 16 3 12 -80 96 -94 96 -13 0 -13 -165 -1 -210 4
-14 8 -29 10 -35 19 -74 141 -221 211 -255 17 -8 37 -20 45 -26 8 -7 18 -13
23 -13 4 0 17 -7 30 -15 37 -24 50 -23 53 4 2 14 6 41 9 60 10 57 6 255 -5
255 -1 0 -4 11 -6 25 -3 14 -21 59 -41 100 -31 63 -60 97 -176 214 -182 184
-221 260 -193 381 4 17 9 39 11 50 1 11 19 49 39 83 20 35 36 66 36 69 0 2 33
52 73 111 80 119 194 264 284 361 l58 64 57 -59 c82 -86 133 -148 208 -249 85
-115 163 -236 195 -305 42 -88 46 -107 47 -185 0 -62 -3 -80 -26 -128 -16 -33
-17 -42 -6 -65 7 -15 14 -33 16 -40 8 -44 15 -47 40 -17 26 31 75 125 83 160
6 29 4 166 -3 193 -3 12 -8 30 -10 40 -6 25 -84 173 -102 193 -7 8 -14 19 -14
23 0 13 -116 177 -195 276 -84 105 -272 310 -284 310 -5 0 -55 -48 -112 -108z"/>
<path d="M1228 1811 c-95 -99 -196 -234 -249 -330 -33 -59 -30 -75 20 -110 32
-23 41 -26 41 -12 0 10 65 120 113 191 47 69 146 189 165 199 14 7 29 -4 77
-61 81 -94 168 -226 216 -325 22 -46 39 -84 39 -85 -1 -2 4 -16 10 -33 7 -16
14 -39 16 -50 3 -11 8 -31 11 -45 8 -37 10 -143 3 -155 -4 -5 -8 -17 -8 -25
-1 -26 -8 -44 -30 -86 -25 -48 -109 -137 -125 -131 -6 2 -11 28 -12 58 -2 66
30 160 77 232 19 29 34 59 32 67 -1 8 -5 29 -9 45 -3 17 -7 36 -9 43 -4 20
-18 11 -62 -39 -46 -52 -100 -142 -115 -191 -19 -61 -21 -73 -23 -118 -1 -25
-5 -50 -8 -55 -3 -6 -3 -19 -1 -30 2 -11 5 -40 6 -65 1 -25 5 -49 8 -55 4 -5
5 -19 3 -29 -7 -46 9 -47 96 -4 100 50 203 145 244 226 14 28 23 52 20 52 -4
0 -2 6 4 13 18 21 25 68 24 162 -2 123 -2 124 -13 130 -5 4 -7 10 -4 15 3 5
-1 23 -10 40 -8 16 -13 30 -11 30 9 0 -60 157 -83 188 -11 17 -21 33 -21 37 0
32 -305 405 -331 405 -4 0 -49 -44 -101 -99z"/>
<path d="M629 1483 c0 -5 -2 -15 -4 -23 -8 -31 -15 -61 -21 -82 -3 -13 -7 -36
-9 -53 -2 -16 -4 -30 -5 -30 -10 0 -14 -190 -6 -255 12 -94 14 -106 25 -132 6
-16 9 -28 6 -28 -4 0 15 -49 50 -125 60 -130 196 -272 351 -365 47 -29 90 -53
97 -54 7 -1 22 -8 35 -14 12 -7 22 -10 22 -7 0 3 10 -1 23 -9 12 -8 27 -15 32
-16 23 -1 45 -12 46 -23 1 -7 2 -39 4 -72 1 -33 3 -65 4 -70 0 -6 24 -11 53
-10 l53 0 0 82 0 81 39 12 c173 52 376 192 480 330 58 78 113 170 101 170 -3
0 1 10 10 23 8 12 17 34 19 47 2 14 5 25 6 25 1 0 3 7 5 15 2 8 7 26 10 40 17
67 24 257 11 335 -8 51 -14 80 -16 80 -1 0 -3 11 -5 25 -5 43 -13 79 -23 96
-9 16 -12 11 -28 -51 -6 -26 -35 -84 -44 -90 -6 -4 -8 -11 -4 -16 9 -16 15
-87 15 -184 1 -87 -2 -115 -16 -180 -4 -16 -8 -37 -10 -45 -2 -8 -4 -16 -5
-17 -2 -2 -3 -6 -4 -10 -1 -5 -7 -18 -14 -30 -7 -13 -11 -23 -8 -23 18 0 -86
-151 -146 -212 -134 -138 -425 -273 -485 -225 -7 5 -13 6 -13 2 0 -4 -7 -1
-17 6 -9 8 -19 13 -22 13 -3 -1 -24 7 -46 19 -22 11 -41 19 -43 18 -5 -3 -96
52 -147 89 -70 52 -153 145 -198 223 -22 36 -38 68 -38 72 1 3 -6 19 -14 35
-9 17 -13 30 -10 30 3 0 1 8 -4 19 -6 10 -13 38 -17 62 -7 46 -7 259 -1 319 3
25 -4 50 -26 90 -17 30 -30 56 -29 58 7 9 0 42 -8 42 -5 0 -10 -3 -11 -7z"/>
</g>
</svg>
